<?xml version="1.0" encoding="utf-8"?><svg viewBox="0 0 80 80" xmlns="http://www.w3.org/2000/svg" xmlns:xlink="http://www.w3.org/1999/xlink"><style>:root>svg{display:none}:root>svg:target{display:block}</style><svg fill="none" viewBox="0 0 80 80" id="burger" xmlns="http://www.w3.org/2000/svg"><path fill-rule="evenodd" clip-rule="evenodd" d="M72.531 36.375v-.001c.024-.828.055-1.945-.017-2.233C71.816 18.518 57.454 6 39.801 6 22.146 6 7.684 18.518 6.986 34.14v3.005h65.527c0-.168.008-.447.017-.77Zm-32.73-27.37c15.957 0 29.123 11.216 29.721 25.136H9.98c.698-13.92 13.864-25.137 29.822-25.137ZM23.244 48.861l-5.386-4.006-5.485 4.006-6.383-4.707 1.795-2.403 4.588 3.305 5.485-4.006 5.386 4.006 5.486-4.006 5.485 4.006 5.486-4.006 5.386 4.006 5.485-4.006 5.486 4.006 5.485-4.006 5.486 4.006 4.588-3.305 1.695 2.403-6.283 4.707-5.486-4.006-5.485 4.006-5.486-4.006-5.485 4.006-5.386-4.006-5.486 4.006-5.485-4.006-5.486 4.006ZM6.29 52.067H73.71c2.394 0 4.289 2.003 4.289 4.206v3.505c0 2.403-1.995 4.306-4.289 4.306h-.997v1.001c0 5.408-4.388 9.915-9.874 9.915H17.16c-5.386 0-9.874-4.406-9.874-9.915v-1H6.29C3.895 64.084 2 62.18 2 59.877v-3.505c0-2.303 1.895-4.306 4.289-4.306Zm56.65 19.929c3.79 0 6.883-3.105 6.883-6.91v-1.002H10.178v1.001c0 3.806 3.092 6.91 6.882 6.91h45.88ZM73.712 61.08c.698 0 1.297-.601 1.297-1.302h.1v-3.405c0-.701-.599-1.302-1.297-1.302H6.289c-.698 0-1.297.6-1.297 1.202v3.505c0 .7.599 1.302 1.297 1.302H73.71ZM41.895 21.623a1.999 1.999 0 0 1-1.995 2.003 1.999 1.999 0 0 1-1.994-2.003c0-1.106.893-2.003 1.994-2.003 1.102 0 1.995.897 1.995 2.003Zm-9.974-3.005a1.999 1.999 0 0 0 1.995-2.002 1.999 1.999 0 0 0-1.995-2.003 1.999 1.999 0 0 0-1.994 2.003c0 1.106.893 2.002 1.994 2.002Zm17.953-2.002a1.999 1.999 0 0 1-1.995 2.002 1.999 1.999 0 0 1-1.994-2.002c0-1.107.893-2.003 1.994-2.003 1.102 0 1.995.896 1.995 2.003Z" fill="#81B3D2"/></svg><svg fill="none" viewBox="0 0 18 18" id="email" xmlns="http://www.w3.org/2000/svg"><path d="M9 11c-.3 0-.5-.1-1-.3L1 7v7c0 .5.5 1 1 1h14c.5 0 1-.5 1-1V7l-7 3.7c-.5.2-.7.3-1 .3Zm7-8H2c-.5 0-1 .5-1 1v.8L9 9l8-4.2V4c0-.5-.5-1-1-1Z" fill="#000"/></svg><svg fill="none" viewBox="0 0 80 80" id="house" xmlns="http://www.w3.org/2000/svg"><path fill-rule="evenodd" clip-rule="evenodd" d="M75.892 43.182 78 41.094l-9.94-9.845V4.398H54.205v13.127L40.45 4 3 41.193l2.108 2.089 7.832-7.757v37.591H9.024V76h64.157v-2.884h-5.12v-37.69l7.83 7.756Zm-18.775-35.8h7.931v20.983l-7.931-7.857V7.381Zm7.931 65.635H15.952V32.54L40.45 8.177 65.048 32.54v40.476ZM33.121 68.54h16.064V44.773H33.12v23.768Zm13.052-2.884h-10.14v-18h10.14v18ZM40.85 39.304c-4.216 0-7.73-3.48-7.73-7.757 0-4.276 3.413-7.657 7.73-7.657 4.318 0 7.832 3.38 7.832 7.657 0 4.276-3.514 7.757-7.831 7.757Zm5.02-7.757c0-2.785-2.309-4.972-5.02-4.972-2.71 0-5.02 2.287-5.02 4.972 0 2.784 2.31 4.972 5.02 4.972 2.812 0 5.02-2.287 5.02-4.972Zm-22.79 13.226h-3.013v3.879h3.012v-3.879Zm3.011 0h3.012v3.879h-3.012v-3.879ZM23.08 50.74h-3.012v3.879h3.012V50.74Zm3.012 0h3.012v3.879h-3.012V50.74Zm29.117-5.967h-3.012v3.879h3.012v-3.879Zm3.012 0h3.012v3.879H58.22v-3.879Zm-3.012 5.967h-3.012v3.879h3.012V50.74Zm3.012 0h3.012v3.879H58.22V50.74Z" fill="#81B3D2"/></svg><svg fill="none" viewBox="0 0 22 20" id="like" xmlns="http://www.w3.org/2000/svg"><path d="m12.4 3.6-.6 2.9-.6 2.5h8.7v2.1L17 18H8V8l4.4-4.4ZM2 10v8-8ZM13.2 0 6.6 6.6c-.4.3-.6.8-.6 1.4v10c0 1.1.9 2 2 2h9c.8 0 1.5-.5 1.8-1.2l3-7.1c.1-.2.1-.5.1-.7V9h.1c0-1.1-.9-2-2-2h-6.3l1-4.6v-.3c0-.4-.2-.8-.4-1.1l-1.1-1ZM4 8H0v12h4V8Z" fill="#81B3D2"/></svg><svg fill="none" viewBox="0 0 18 18" id="phone" xmlns="http://www.w3.org/2000/svg"><path d="M3.6 7.8c1.4 2.8 3.8 5.1 6.6 6.6l2.2-2.2c.3-.3.7-.4 1-.2 1.1.4 2.3.6 3.6.6.6 0 1 .4 1 1V17c0 .6-.4 1-1 1C7.6 18 0 10.4 0 1c0-.6.4-1 1-1h3.5c.6 0 1 .4 1 1 0 1.2.2 2.4.6 3.6.1.3 0 .7-.2 1L3.6 7.8Z" fill="#010101"/></svg><svg fill="none" viewBox="0 0 48 54" id="polygon" xmlns="http://www.w3.org/2000/svg"><path d="M48 27 0 54V0l48 27Z" fill="#fff" fill-opacity=".7"/></svg><svg fill="none" viewBox="0 0 80 80" id="souvenirs" xmlns="http://www.w3.org/2000/svg"><path d="M69.2 25.117H44.8C58.4 18.319 59.5 14.02 59 11.62c-1.1-3.899-5.6-6.898-9.8-5.298-5.5 2.099-7 10.296-8.5 16.194-1.9-5.998-3.7-13.595-8-17.494-1.2-1.1-3-2.2-5.7-2-4 .4-9.7 5.299-7.3 10.797 2.2 5.299 9.5 8.697 14.4 11.397H11.8c-1.6 0-2.8 1.3-2.8 2.799v11.196c0 1.6 1.3 2.8 2.8 2.8h.3V78h57V42.011h.1c1.6 0 2.8-1.3 2.8-2.799V28.016c0-1.6-1.3-2.9-2.8-2.9ZM50.8 8.822c2.1-.3 4.9 1.3 5.2 3.199.4 2.699-3.3 5.198-5 6.298-2.5 1.7-4.9 2.599-7.2 3.999.8-3.7 2.5-12.896 7-13.496Zm-22.6 9.797c-2.2-1.5-6.4-4.399-6.3-7.698.1-3.599 5.7-6.498 8.7-3.799 3.8 3.3 5.6 10.997 7 16.395-3.2-1.6-6.2-2.799-9.4-4.898ZM34.1 75H15V42.01h19.1v32.99Zm0-35.989H12V28.116h22.1v10.896Zm10 35.989H37V28.116h7.1V75Zm22 0h-19V42.01h19.1v32.99h-.1ZM69 39.012H47.1V28.116H69v10.896Z" fill="#81B3D2"/></svg><svg fill="none" viewBox="0 0 24 24" id="telegram" xmlns="http://www.w3.org/2000/svg"><path d="m22.44 4.622-3.17 14.944c-.239 1.055-.862 1.317-1.748.82l-4.828-3.558-2.33 2.242c-.258.258-.473.473-.97.473l.347-4.917 8.948-8.086c.39-.346-.085-.54-.604-.192L7.022 13.314 2.26 11.823c-1.036-.323-1.055-1.036.216-1.533l18.627-7.177c.863-.323 1.617.192 1.336 1.51Z" fill="#81B3D2"/></svg><svg fill="none" viewBox="0 0 22 16" id="tick" xmlns="http://www.w3.org/2000/svg"><path d="M21.805 1.307 20.76.222c-.285-.296-.856-.296-1.141 0L8.298 11.957 2.403 5.843c-.286-.296-.856-.296-1.142 0L.214 6.928c-.285.295-.285.887 0 1.183l7.419 7.692c.19.197.38.197.57.197.191 0 .381-.099.571-.197L21.615 2.49c.476-.296.476-.789.19-1.183Z" fill="#333"/></svg><svg fill="none" viewBox="0 0 24 24" id="vk" xmlns="http://www.w3.org/2000/svg"><g clip-path="url(#ja)"><path fill-rule="evenodd" clip-rule="evenodd" d="M23.45 5.948c.166-.546 0-.948-.795-.948H20.03c-.668 0-.976.347-1.143.73 0 0-1.335 3.196-3.226 5.272-.612.602-.89.793-1.224.793-.167 0-.418-.191-.418-.738V5.948c0-.656-.184-.948-.74-.948H9.151c-.417 0-.668.304-.668.593 0 .621.946.765 1.043 2.513v3.798c0 .833-.153.984-.487.984-.89 0-3.055-3.211-4.34-6.885C4.45 5.288 4.198 5 3.527 5H.9c-.75 0-.9.347-.9.73 0 .682.89 4.07 4.145 8.551C6.315 17.341 9.37 19 12.153 19c1.669 0 1.875-.368 1.875-1.003v-2.313c0-.737.158-.884.687-.884.39 0 1.057.192 2.615 1.667C19.11 18.216 19.403 19 20.405 19h2.625c.75 0 1.126-.368.91-1.096-.238-.724-1.088-1.775-2.215-3.022-.612-.71-1.53-1.475-1.809-1.858-.389-.491-.278-.71 0-1.147 0 0 3.2-4.426 3.533-5.929h.001Z" fill="#81B3D2"/></g><defs><clipPath id="ja"><path fill="#fff" d="M0 0h24v24H0z"/></clipPath></defs></svg><svg fill="none" viewBox="0 0 24 24" id="youtube" xmlns="http://www.w3.org/2000/svg"><path d="M19.181 5H4.813C3.306 5 2 6.3 2 7.8v8.3C2 17.7 3.306 19 4.813 19h14.368c1.608 0 2.814-1.3 2.814-2.8V7.8c.1-1.5-1.206-2.8-2.814-2.8ZM9.033 15.4V8.6l6.833 3.4-6.833 3.4Z" fill="#81B3D2"/></svg></svg>